REM DIRINDEX 1\2,1\3\7,1\3\8,1\4\9,1\4\10,1\4\11,1\5\12,1\5\13,1\5\14,1\6\15,1\6\16,1\6\17
REM DIRNAME "folder01","folder02","folder03","folder04","folder05","folder06","folder07","folder08","folder09","folder10","folder11","folder12","folder13","folder14","folder15","folder16","folder17"
TITLE ""
FILE "2Q_t_1153-1169.mp3" MP3
  TRACK 01 AUDIO
    TITLE "0:"
    INDEX 01 00:00:00
  TRACK 02 AUDIO
    TITLE "7:cjc174_4099"
    INDEX 01 00:00:10
  TRACK 03 AUDIO
    TITLE "0:"
    INDEX 01 00:01:10
  TRACK 04 AUDIO
    TITLE "8:cjc174_4100"
    INDEX 01 00:01:57
  TRACK 05 AUDIO
    TITLE "0:"
    INDEX 01 00:03:73
  TRACK 06 AUDIO
    TITLE "7:cjc174_4101"
    INDEX 01 00:04:45
  TRACK 07 AUDIO
    TITLE "0:"
    INDEX 01 00:05:51
  TRACK 08 AUDIO
    TITLE "8:cjc174_4102"
    INDEX 01 00:06:25
  TRACK 09 AUDIO
    TITLE "0:"
    INDEX 01 00:08:10
  TRACK 10 AUDIO
    TITLE "7:cjc174_4103"
    INDEX 01 00:08:55
  TRACK 11 AUDIO
    TITLE "0:"
    INDEX 01 00:10:01
  TRACK 12 AUDIO
    TITLE "8:cjc174_4104"
    INDEX 01 00:10:50
  TRACK 13 AUDIO
    TITLE "0:"
    INDEX 01 00:13:11
  TRACK 14 AUDIO
    TITLE "7:cjc174_4105"
    INDEX 01 00:13:56
  TRACK 15 AUDIO
    TITLE "0:"
    INDEX 01 00:14:44
  TRACK 16 AUDIO
    TITLE "8:cjc174_4106"
    INDEX 01 00:15:27
  TRACK 17 AUDIO
    TITLE "0:"
    INDEX 01 00:16:45
  TRACK 18 AUDIO
    TITLE "7:cjc174_4107"
    INDEX 01 00:17:13
  TRACK 19 AUDIO
    TITLE "0:"
    INDEX 01 00:18:28
  TRACK 20 AUDIO
    TITLE "8:cjc174_4108"
    INDEX 01 00:19:04
  TRACK 21 AUDIO
    TITLE "0:"
    INDEX 01 00:21:09
  TRACK 22 AUDIO
    TITLE "7:cjc174_4109"
    INDEX 01 00:21:54
  TRACK 23 AUDIO
    TITLE "0:"
    INDEX 01 00:23:03
  TRACK 24 AUDIO
    TITLE "8:cjc174_4110"
    INDEX 01 00:23:49
  TRACK 25 AUDIO
    TITLE "0:"
    INDEX 01 00:25:47
  TRACK 26 AUDIO
    TITLE "7:cjc174_4111"
    INDEX 01 00:26:19
  TRACK 27 AUDIO
    TITLE "0:"
    INDEX 01 00:27:35
  TRACK 28 AUDIO
    TITLE "8:cjc174_4112"
    INDEX 01 00:28:09
  TRACK 29 AUDIO
    TITLE "0:"
    INDEX 01 00:29:30
  TRACK 30 AUDIO
    TITLE "2:cjc174_4113"
    INDEX 01 00:29:75
  TRACK 31 AUDIO
    TITLE "0:"
    INDEX 01 00:31:21
  TRACK 32 AUDIO
    TITLE "7:cjc174_4114"
    INDEX 01 00:31:66
  TRACK 33 AUDIO
    TITLE "0:"
    INDEX 01 00:33:12
  TRACK 34 AUDIO
    TITLE "8:cjc174_4115"
    INDEX 01 00:33:63
  TRACK 35 AUDIO
    TITLE "0:"
    INDEX 01 00:36:20
  TRACK 36 AUDIO
    TITLE "7:cjc174_4116"
    INDEX 01 00:36:65
  TRACK 37 AUDIO
    TITLE "0:"
    INDEX 01 00:38:09
  TRACK 38 AUDIO
    TITLE "8:cjc174_4117"
    INDEX 01 00:38:66
  TRACK 39 AUDIO
    TITLE "0:"
    INDEX 01 00:40:20
  TRACK 40 AUDIO
    TITLE "7:cjc174_4118"
    INDEX 01 00:40:67
  TRACK 41 AUDIO
    TITLE "0:"
    INDEX 01 00:42:07
  TRACK 42 AUDIO
    TITLE "8:cjc174_4119"
    INDEX 01 00:42:58
  TRACK 43 AUDIO
    TITLE "0:"
    INDEX 01 00:45:07
  TRACK 44 AUDIO
    TITLE "7:cjc174_4120"
    INDEX 01 00:45:52
  TRACK 45 AUDIO
    TITLE "0:"
    INDEX 01 00:46:65
  TRACK 46 AUDIO
    TITLE "8:cjc174_4121"
    INDEX 01 00:47:39
  TRACK 47 AUDIO
    TITLE "0:"
    INDEX 01 00:49:46
  TRACK 48 AUDIO
    TITLE "7:cjc174_4122"
    INDEX 01 00:50:16
  TRACK 49 AUDIO
    TITLE "0:"
    INDEX 01 00:51:39
  TRACK 50 AUDIO
    TITLE "8:cjc174_4123"
    INDEX 01 00:52:11
  TRACK 51 AUDIO
    TITLE "0:"
    INDEX 01 00:55:03
  TRACK 52 AUDIO
    TITLE "7:cjc174_4124"
    INDEX 01 00:55:49
  TRACK 53 AUDIO
    TITLE "0:"
    INDEX 01 00:56:73
  TRACK 54 AUDIO
    TITLE "8:cjc174_4125"
    INDEX 01 00:57:47
  TRACK 55 AUDIO
    TITLE "0:"
    INDEX 01 00:58:72
  TRACK 56 AUDIO
    TITLE "7:cjc174_4126"
    INDEX 01 00:59:44
  TRACK 57 AUDIO
    TITLE "0:"
    INDEX 01 01:00:63
  TRACK 58 AUDIO
    TITLE "8:cjc174_4127"
    INDEX 01 01:01:37
  TRACK 59 AUDIO
    TITLE "0:"
    INDEX 01 01:04:01
  TRACK 60 AUDIO
    TITLE "7:cjc174_4128"
    INDEX 01 01:04:44
  TRACK 61 AUDIO
    TITLE "0:"
    INDEX 01 01:05:74
  TRACK 62 AUDIO
    TITLE "8:cjc174_4129"
    INDEX 01 01:06:54
  TRACK 63 AUDIO
    TITLE "0:"
    INDEX 01 01:09:68
  TRACK 64 AUDIO
    TITLE "7:cjc174_4130"
    INDEX 01 01:10:40
  TRACK 65 AUDIO
    TITLE "0:"
    INDEX 01 01:12:04
  TRACK 66 AUDIO
    TITLE "8:cjc174_4131"
    INDEX 01 01:12:57
  TRACK 67 AUDIO
    TITLE "0:"
    INDEX 01 01:14:28
  TRACK 68 AUDIO
    TITLE "7:cjc174_4132"
    INDEX 01 01:14:75
  TRACK 69 AUDIO
    TITLE "0:"
    INDEX 01 01:16:06
  TRACK 70 AUDIO
    TITLE "8:cjc174_4133"
    INDEX 01 01:16:60
  TRACK 71 AUDIO
    TITLE "0:"
    INDEX 01 01:18:55
